Normalized EMG Linear Envelopes
nRows=181
nColumns=4

endheader
time	 med_gas_r	  soleus_r	 tib_ant_r	
2.68733	  0.082604	  0.172435	  0.028216	
2.74982	  0.087082	  0.144260	  0.030544	
2.81232	  0.090907	  0.125235	  0.032513	
2.87482	  0.092532	  0.116857	  0.034040	
2.93731	  0.091084	  0.115999	  0.034988	
2.99981	  0.087814	  0.120039	  0.035102	
3.0623	  0.084454	  0.126246	  0.034419	
3.1248	  0.081312	  0.131726	  0.033408	
3.1873	  0.078572	  0.135683	  0.032624	
3.24979	  0.077648	  0.137966	  0.032147	
3.31229	  0.079461	  0.137337	  0.031749	
3.37478	  0.082355	  0.133488	  0.031542	
3.43728	  0.083204	  0.127752	  0.031764	
3.49978	  0.080795	  0.122430	  0.032283	
3.56227	  0.077286	  0.120913	  0.032806	
3.62477	  0.075704	  0.124632	  0.033256	
3.68726	  0.077061	  0.130010	  0.033743	
3.74976	  0.080822	  0.132348	  0.034215	
3.81226	  0.086178	  0.130681	  0.034483	
3.87475	  0.091328	  0.126932	  0.034638	
3.93725	  0.093809	  0.123098	  0.034921	
3.99974	  0.092812	  0.119560	  0.035334	
4.06224	  0.089428	  0.115418	  0.035607	
4.12474	  0.084849	  0.110924	  0.035402	
4.18723	  0.079990	  0.107782	  0.034554	
4.24973	  0.076591	  0.107265	  0.033267	
4.31222	  0.077069	  0.109839	  0.032124	
4.37472	  0.081989	  0.114477	  0.031617	
4.43722	  0.088417	  0.118199	  0.031741	
4.49971	  0.092424	  0.118928	  0.032289	
4.56221	  0.092305	  0.117491	  0.033104	
4.6247	  0.088906	  0.116280	  0.033974	
4.6872	  0.084857	  0.117996	  0.034653	
4.7497	  0.083189	  0.123987	  0.034926	
4.81219	  0.084938	  0.132074	  0.034780	
4.87469	  0.088477	  0.137390	  0.034576	
4.93718	  0.091158	  0.136384	  0.034758	
4.99968	  0.091132	  0.130397	  0.035477	
5.06218	  0.088522	  0.124400	  0.036504	
5.12467	  0.085161	  0.121822	  0.037313	
5.18717	  0.082719	  0.122500	  0.037363	
5.24966	  0.081418	  0.124561	  0.036361	
5.31216	  0.080524	  0.125868	  0.034305	
5.37466	  0.079167	  0.124807	  0.031719	
5.43715	  0.076849	  0.121171	  0.029846	
5.49965	  0.074089	  0.117098	  0.030286	
5.56214	  0.072353	  0.118054	  0.034668	
5.62464	  0.073140	  0.132650	  0.045043	
5.68714	  0.077669	  0.170232	  0.063321	
5.74963	  0.087002	  0.232460	  0.088540	
5.81213	  0.101554	  0.301440	  0.115911	
5.87462	  0.119335	  0.350095	  0.140614	
5.93712	  0.134470	  0.377991	  0.161061	
5.99962	  0.141106	  0.412030	  0.177194	
6.06211	  0.140674	  0.454660	  0.188588	
6.12461	  0.141470	  0.470939	  0.195695	
6.1871	  0.151001	  0.446579	  0.200052	
6.2496	  0.171351	  0.412222	  0.203462	
6.3121	  0.197431	  0.392679	  0.209986	
6.37459	  0.219033	  0.377602	  0.226127	
6.43709	  0.231980	  0.355165	  0.254574	
6.49958	  0.242253	  0.336589	  0.289436	
6.56208	  0.253086	  0.334458	  0.320420	
6.62458	  0.260047	  0.337847	  0.341367	
6.68707	  0.260637	  0.324125	  0.354341	
6.74957	  0.257838	  0.290946	  0.365670	
6.81206	  0.256422	  0.259442	  0.378820	
6.87456	  0.256149	  0.245845	  0.390952	
6.93706	  0.249021	  0.249230	  0.395535	
6.99955	  0.232362	  0.262385	  0.389489	
7.06205	  0.215328	  0.274426	  0.377867	
7.12454	  0.204804	  0.272620	  0.369502	
7.18704	  0.199875	  0.258050	  0.368737	
7.24954	  0.198763	  0.248007	  0.373464	
7.31203	  0.200902	  0.256852	  0.379624	
7.37453	  0.208115	  0.283908	  0.384767	
7.43702	  0.220915	  0.319260	  0.388712	
7.49952	  0.231884	  0.357599	  0.393057	
7.56202	  0.234895	  0.399238	  0.398642	
7.62451	  0.233375	  0.433583	  0.402921	
7.68701	  0.230148	  0.444500	  0.401456	
7.7495	  0.225700	  0.441326	  0.392218	
7.812	  0.225810	  0.453875	  0.377547	
7.8745	  0.231884	  0.486556	  0.362627	
7.93699	  0.233591	  0.504212	  0.353153	
7.99949	  0.226330	  0.475557	  0.352532	
8.06198	  0.221366	  0.415107	  0.359613	
8.12448	  0.227098	  0.366588	  0.368892	
8.18698	  0.234532	  0.351228	  0.372355	
8.24947	  0.231898	  0.353356	  0.365488	
8.31197	  0.219878	  0.354788	  0.354106	
8.37446	  0.202407	  0.352791	  0.348351	
8.43696	  0.179267	  0.344358	  0.349061	
8.49946	  0.156640	  0.328413	  0.349226	
8.56195	  0.148497	  0.316809	  0.347743	
8.62445	  0.160585	  0.312541	  0.350276	
8.68694	  0.181929	  0.297512	  0.357519	
8.74944	  0.197726	  0.263539	  0.363227	
8.81194	  0.205448	  0.229455	  0.362725	
8.87443	  0.208948	  0.215318	  0.355936	
8.93693	  0.206234	  0.220637	  0.344574	
8.99942	  0.197936	  0.232362	  0.332975	
9.06192	  0.195328	  0.240561	  0.327698	
9.12442	  0.205648	  0.242878	  0.330094	
9.18691	  0.220095	  0.239974	  0.334784	
9.24941	  0.226845	  0.234063	  0.337923	
9.3119	  0.226606	  0.232066	  0.341261	
9.3744	  0.225965	  0.241243	  0.348480	
9.4369	  0.226942	  0.260343	  0.358192	
9.49939	  0.229185	  0.279673	  0.361834	
9.56189	  0.229744	  0.287894	  0.354298	
9.62438	  0.225230	  0.279850	  0.341001	
9.68688	  0.221688	  0.261316	  0.328582	
9.74938	  0.226107	  0.244400	  0.318334	
9.81187	  0.231585	  0.237662	  0.310422	
9.87437	  0.230385	  0.240086	  0.304685	
9.93686	  0.226434	  0.243248	  0.298632	
9.99936	  0.221595	  0.238950	  0.290427	
10.0619	  0.211765	  0.224668	  0.280474	
10.1244	  0.198437	  0.204116	  0.267974	
10.1868	  0.184469	  0.183676	  0.250827	
10.2493	  0.169308	  0.169193	  0.231486	
10.3118	  0.159853	  0.166907	  0.219074	
10.3743	  0.168027	  0.180508	  0.222294	
10.4368	  0.191504	  0.204378	  0.241072	
10.4993	  0.211932	  0.225819	  0.264733	
10.5618	  0.217148	  0.232896	  0.276826	
10.6243	  0.213987	  0.219083	  0.265965	
10.6868	  0.211057	  0.188182	  0.235620	
10.7493	  0.201279	  0.154104	  0.200360	
10.8118	  0.175490	  0.129606	  0.172835	
10.8743	  0.140603	  0.118120	  0.156805	
10.9368	  0.110714	  0.116722	  0.148661	
10.9993	  0.091772	  0.120297	  0.142670	
11.0618	  0.082164	  0.122620	  0.136192	
11.1243	  0.078660	  0.119086	  0.130126	
11.1868	  0.078614	  0.110721	  0.125491	
11.2493	  0.080586	  0.103395	  0.121232	
11.3118	  0.083681	  0.101772	  0.115502	
11.3743	  0.086640	  0.105556	  0.108065	
11.4368	  0.088549	  0.111320	  0.100105	
11.4993	  0.089345	  0.115248	  0.093735	
11.5618	  0.089039	  0.114409	  0.091618	
11.6243	  0.087491	  0.108663	  0.092467	
11.6868	  0.084759	  0.102008	  0.090020	
11.7492	  0.080858	  0.100045	  0.081263	
11.8117	  0.076436	  0.105076	  0.070073	
11.8742	  0.074492	  0.113796	  0.060791	
11.9367	  0.079786	  0.120465	  0.054350	
11.9992	  0.095740	  0.122259	  0.050247	
12.0617	  0.121455	  0.120204	  0.047969	
12.1242	  0.148569	  0.116404	  0.047112	
12.1867	  0.163142	  0.112482	  0.047145	
12.2492	  0.159625	  0.108929	  0.047047	
12.3117	  0.150533	  0.105138	  0.046113	
12.3742	  0.150758	  0.101160	  0.044687	
12.4367	  0.155908	  0.098892	  0.043502	
12.4992	  0.149221	  0.100796	  0.042965	
12.5617	  0.126680	  0.107346	  0.043114	
12.6242	  0.101558	  0.116031	  0.043705	
12.6867	  0.086538	  0.123120	  0.044503	
12.7492	  0.083034	  0.125817	  0.045575	
12.8117	  0.085710	  0.123441	  0.046819	
12.8742	  0.089262	  0.118151	  0.047557	
12.9367	  0.091058	  0.113639	  0.047024	
12.9992	  0.090614	  0.112081	  0.044990	
13.0617	  0.088557	  0.113537	  0.042244	
13.1242	  0.086526	  0.117326	  0.040191	
13.1867	  0.085560	  0.121509	  0.039447	
13.2492	  0.083938	  0.123295	  0.039546	
13.3116	  0.079850	  0.122887	  0.039818	
13.3741	  0.075609	  0.123877	  0.039982	
13.4366	  0.075573	  0.127309	  0.040334	
13.4991	  0.080728	  0.129360	  0.040984	
13.5616	  0.087423	  0.126858	  0.041245	
13.6241	  0.090888	  0.120846	  0.040638	
13.6866	  0.089553	  0.113986	  0.039414	
13.7491	  0.086303	  0.109264	  0.038271	
13.8116	  0.086119	  0.110999	  0.038403	
13.8741	  0.092524	  0.122217	  0.040489	
13.9366	  0.104563	  0.140552	  0.043823	
